<svg xmlns="http://www.w3.org/2000/svg" width="60" height="50" viewBox="0 0 60 50">
    <g fill="#391909" fill-rule="evenodd">
        <path d="M57.484 21.605c-.12.04-.24.073-.362.096L38.02 25.08v-1.808c0-1.077-.862-1.953-1.922-1.953s-1.921.876-1.921 1.953v1.809l-7.974-1.412v-2.323c0-.024-.01-.046-.014-.07-.004-.022-.007-.042-.014-.065a.468.468 0 0 0-.122-.213l-5.424-5.105a.46.46 0 0 0-.266-.116c-.018-.003-.033-.01-.051-.01h-6.616l.724-6.882c0-1.294 1.035-2.348 2.307-2.348h38.739c1.272 0 2.308 1.054 2.31 2.399l1.103 10.395c.107 1.005-.469 1.941-1.394 2.273zm-22.373 8.543v-6.875a.995.995 0 0 1 .986-1.002c.544 0 .987.45.987 1.002v6.875a.996.996 0 0 1-.987 1.003.996.996 0 0 1-.986-1.003zm21.307 8.136c0 1.295-1.04 2.347-2.318 2.347H26.202V24.635l7.974 1.411v4.102c0 1.076.862 1.952 1.921 1.952 1.06 0 1.922-.876 1.922-1.952v-4.102l19.118-3.384-.72 15.622zm-35.64-17.406V17.33l3.765 3.544-3.765.004zm4.489 26.155a1.15 1.15 0 0 1-1.139 1.158H2.088a1.15 1.15 0 0 1-1.139-1.157V17.876c0-.64.511-1.158 1.139-1.158h17.755v4.636c0 .126.05.247.137.336.088.09.206.14.33.14h.001l4.956-.007v25.21zm3.291-44.912c0-.608.487-1.102 1.085-1.102h12.906c.598 0 1.084.494 1.084 1.102v3.468H28.558V2.12zm31.25 17.109l-1.1-10.344c0-1.818-1.455-3.297-3.243-3.297H44.567V2.12c0-1.132-.905-2.052-2.018-2.052H29.643c-1.113 0-2.02.92-2.02 2.052v3.468H16.727c-1.788 0-3.242 1.479-3.24 3.246l-.73 6.933H2.087c-1.143 0-2.073.945-2.073 2.108v29.158c0 1.162.93 2.108 2.073 2.108h22.04c1.144 0 2.074-.947 2.074-2.109v-5.452H54.1c1.794 0 3.252-1.48 3.251-3.275l.735-15.94a3.101 3.101 0 0 0 1.721-3.136z"/>
        <path d="M12.226 26.634c0 .22.173.398.388.398h8.52a.393.393 0 0 0 .389-.398.393.393 0 0 0-.388-.399h-8.521a.394.394 0 0 0-.388.399M6.071 27.032h4.271a.393.393 0 0 0 .389-.398.393.393 0 0 0-.389-.398h-4.27a.393.393 0 0 0-.39.398c0 .22.175.398.39.398M21.135 29.767h-3.702a.394.394 0 0 0-.388.4c0 .22.174.397.388.397h3.702a.393.393 0 0 0 .388-.398c0-.22-.174-.399-.388-.399M6.071 30.565h9.462a.393.393 0 0 0 .389-.399.394.394 0 0 0-.389-.398H6.071a.394.394 0 0 0-.388.398c0 .22.174.399.388.399M21.135 33.3h-9.336a.393.393 0 0 0-.388.399c0 .22.174.398.388.398h9.336a.393.393 0 0 0 .388-.398.393.393 0 0 0-.388-.399M6.071 34.097h4.27a.393.393 0 0 0 .389-.399.393.393 0 0 0-.388-.398h-4.27a.393.393 0 0 0-.39.398c0 .22.175.399.39.399M21.135 36.832H6.07a.394.394 0 0 0-.388.399c0 .22.174.398.388.398h15.064a.394.394 0 0 0 .388-.398c0-.22-.174-.4-.388-.4M14.612 40.364h-8.54a.393.393 0 0 0-.39.399c0 .22.175.398.39.398h8.54a.393.393 0 0 0 .388-.398.393.393 0 0 0-.388-.399M49.634 46.896h-6.84v-1.945h6.84c.523 0 .948.436.948.972a.962.962 0 0 1-.948.973zm-7.617 0h-9.979l-1.652-.973 1.652-.972h9.98v1.945zm7.617-2.743H31.935a.376.376 0 0 0-.193.053l-2.33 1.371a.4.4 0 0 0-.196.346.4.4 0 0 0 .196.345l2.33 1.372c.06.034.126.052.193.052H49.635c.95 0 1.724-.793 1.724-1.77 0-.974-.774-1.769-1.725-1.769z"/>
        <path d="M48.887 45.525h-4.938a.393.393 0 0 0-.389.398c0 .22.173.399.389.399h4.938a.394.394 0 0 0 .388-.399.393.393 0 0 0-.388-.398"/>
    </g>
</svg>
