<svg xmlns="http://www.w3.org/2000/svg" width="24" height="24" viewBox="0 0 24 24">
    <path fill="#00B9E4" fill-rule="nonzero" d="M3.515 3.515c-4.687 4.686-4.687 12.284 0 16.97 4.686 4.687 12.284 4.687 16.97 0 4.687-4.686 4.687-12.284 0-16.97-4.686-4.687-12.284-4.687-16.97 0zm8.247.985c.966 0 1.738.791 1.738 1.75S12.703 8 11.762 8A1.77 1.77 0 0 1 10 6.226c0-.959.797-1.726 1.762-1.726zm3.224 12.54a1.163 1.163 0 0 1-.244.414c-.635.657-1.417 1.046-2.345 1.046-.44 0-.854 0-1.294-.073-.708-.097-1.612-.973-1.49-1.897l.294-1.898c.195-1.094.39-2.213.586-3.308 0-.073.024-.146.024-.219 0-.462-.146-.632-.61-.68a4.907 4.907 0 0 1-.586-.098c-.22-.073-.342-.268-.318-.438.025-.194.147-.316.39-.365.123-.024.27-.024.416-.024h3.37c.415 0 .66.195.66.608 0 .34-.05.681-.123 1.022-.22 1.265-.464 2.505-.684 3.77-.073.414-.17.827-.22 1.24-.024.195 0 .414.05.609.073.267.268.413.537.389.22-.024.44-.097.659-.195.17-.073.317-.194.488-.243.293-.097.513.073.44.34z"/>
</svg>
