<?xml version="1.0" encoding="UTF-8"?>
<svg width="75px" height="75px" viewBox="0 0 75 75" version="1.1" xmlns="http://www.w3.org/2000/svg" xmlns:xlink="http://www.w3.org/1999/xlink">
    <!-- Generator: Sketch 49.2 (51160) - http://www.bohemiancoding.com/sketch -->
    <title>icone valider</title>
    <desc>Created with Sketch.</desc>
    <defs></defs>
    <g id="icone-valider" stroke="none" stroke-width="1" fill="none" fill-rule="evenodd">
        <g fill="#07AE39" fill-rule="nonzero" id="Shape">
            <path d="M37.5,0 C16.7894118,0 0,16.7894118 0,37.5 C0,58.2105882 16.7894118,75 37.5,75 C58.2105882,75 75,58.2105882 75,37.5 C75,16.7894118 58.2105882,0 37.5,0 Z M59.8102941,28.8097059 L36.1914706,52.4294118 C35.3638235,53.2570588 34.2423529,53.7220588 33.0714706,53.7220588 C31.9005882,53.7220588 30.7791176,53.2579412 29.9514706,52.4294118 L15.1888235,37.6676471 C13.4655882,35.9444118 13.4655882,33.1508824 15.1888235,31.4285294 C16.9120588,29.7061765 19.7047059,29.7061765 21.4279412,31.4285294 L33.0705882,43.0711765 L53.5720588,22.5705882 C55.2935294,20.8482353 58.0888235,20.8482353 59.8102941,22.5705882 C61.5335294,24.2929412 61.5335294,27.0864706 59.8102941,28.8097059 Z"></path>
        </g>
    </g>
</svg>